<svg width="1100" height="800" viewBox="0 0 1100 800" xmlns="http://www.w3.org/2000/svg">
  <rect width="1100" height="800" fill="#059669"/>
  <g transform="translate(60, 200)">
    <line x1="80" y1="-20" x2="360" y2="-20" stroke="#FFFFFF" stroke-width="14" stroke-linecap="round"/>
    <polyline points="110,-52 78,-20 110,12" stroke="#FFFFFF" stroke-width="14" fill="none" stroke-linecap="round" stroke-linejoin="round"/>
    <polyline points="330,-52 362,-20 330,12" stroke="#FFFFFF" stroke-width="14" fill="none" stroke-linecap="round" stroke-linejoin="round"/>
    <rect x="20" y="60" width="400" height="280" rx="14" fill="#FFFFFF"/>
    <path d="M 20 60 L 220 220 L 420 60" stroke="#059669" stroke-width="12" fill="none"/>
    <path d="M 220 320 C 188 290, 144 290, 144 268 C 144 246, 188 246, 220 280 C 252 246, 296 246, 296 268 C 296 290, 252 290, 220 320 Z" fill="#059669"/>
  </g>
  <text x="540" y="340" font-family="'Apple SD Gothic Neo','AppleSDGothicNeo','Helvetica Neue','Arial Unicode MS',sans-serif" font-size="100" font-weight="900" fill="#FFFFFF">경조사 가계부</text>
  <text x="540" y="430" font-family="'Apple SD Gothic Neo','AppleSDGothicNeo','Helvetica Neue','Arial Unicode MS',sans-serif" font-size="44" font-weight="500" fill="#FFFFFF" opacity="0.92">마음을 주고받은 기록</text>
</svg>
